<svg width="800" height="800" viewBox="0 0 800 800" fill="none" xmlns="http://www.w3.org/2000/svg">
<rect width="800" height="800" rx="70" fill="#42FF00" fill-opacity="0.7"/>
<path d="M100 200L200 66.6667H600L700 200M100 200V666.667C100 684.348 107.024 701.305 119.526 713.807C132.029 726.309 148.986 733.333 166.667 733.333H633.333C651.014 733.333 667.971 726.309 680.474 713.807C692.976 701.305 700 684.348 700 666.667V200M100 200H700M533.333 333.333C533.333 368.696 519.286 402.609 494.281 427.614C469.276 452.619 435.362 466.667 400 466.667C364.638 466.667 330.724 452.619 305.719 427.614C280.714 402.609 266.667 368.696 266.667 333.333" stroke="#522504" stroke-width="60" stroke-linecap="round" stroke-linejoin="round"/>
</svg>
